<svg width="211" height="205" viewBox="0 0 211 205" fill="none" xmlns="http://www.w3.org/2000/svg">
<g clip-path="url(#clip0)">
<path d="M203.967 81.9471H190.85C181.151 43.8131 145.93 17.0244 105.5 17.0307C103.742 17.0307 101.949 17.0651 100.225 17.2012C61.8228 19.4268 29.3773 45.6617 20.1499 81.9471H7.03323C5.09342 81.9518 3.52226 83.4783 3.51743 85.363V119.531C3.52226 121.415 5.09342 122.942 7.03323 122.947H20.1499C29.3773 159.232 61.8228 185.467 100.225 187.692C101.949 187.83 103.742 187.863 105.5 187.863C145.93 187.869 181.151 161.081 190.85 122.947H203.967C205.907 122.942 207.478 121.415 207.483 119.531V85.363C207.478 83.4783 205.907 81.9518 203.967 81.9471V81.9471ZM105.5 44.3636C130.368 44.4058 152.627 59.3579 161.45 81.9471H49.5497C57.7001 61.1081 77.3719 46.6111 100.225 44.6029C101.978 44.4355 103.739 44.3558 105.5 44.3636ZM161.45 122.947C152.627 145.536 130.368 160.488 105.5 160.53C103.739 160.538 101.978 160.458 100.225 160.291C77.3719 158.283 57.7001 143.786 49.5497 122.947H161.45Z" fill="#C81E1E"/>
<path d="M193.416 81.9471H180.299C171.074 45.6617 138.627 19.4268 100.225 17.2012C61.8229 19.4268 29.3773 45.6617 20.1499 81.9471H7.03323C5.09342 81.9518 3.52226 83.4783 3.51743 85.363V119.531C3.52226 121.415 5.09342 122.942 7.03323 122.947H20.1499C29.3773 159.232 61.8229 185.467 100.225 187.692C138.627 185.467 171.074 159.232 180.299 122.947H193.416C195.356 122.942 196.927 121.415 196.934 119.531V85.363C196.927 83.4783 195.356 81.9518 193.416 81.9471V81.9471ZM105.5 160.53C103.739 160.538 101.978 160.458 100.225 160.291C98.4716 160.458 96.7121 160.538 94.9494 160.53C69.4195 160.53 57.8144 144.882 49.2326 122.947H161.45C152.627 145.536 130.368 160.488 105.5 160.53V160.53ZM49.2326 81.9471C57.8144 60.0117 69.4195 44.3636 94.9494 44.3636C96.7121 44.3558 98.4716 44.4355 100.225 44.6029C101.978 44.4355 103.739 44.3558 105.5 44.3636C130.368 44.4058 152.627 59.3579 161.45 81.9471H49.2326Z" fill="#F44335"/>
<path d="M7.03323 81.9471H203.967C205.908 81.9471 207.483 83.4768 207.483 85.363V119.531C207.483 121.417 205.908 122.947 203.967 122.947H7.03323C5.09181 122.947 3.51743 121.417 3.51743 119.531V85.363C3.51743 83.4768 5.09181 81.9471 7.03323 81.9471V81.9471Z" fill="#0377BC"/>
<path d="M7.03323 81.9471H193.416C195.359 81.9471 196.934 83.4768 196.934 85.363V119.531C196.934 121.417 195.359 122.947 193.416 122.947H7.03323C5.09181 122.947 3.51743 121.417 3.51743 119.531V85.363C3.51743 83.4768 5.09181 81.9471 7.03323 81.9471V81.9471Z" fill="#02A9F4"/>
<path d="M105.5 191.28C63.4182 191.379 26.7356 163.477 16.7355 123.763C16.4764 122.743 16.7162 121.666 17.3827 120.838C18.0491 120.012 19.0697 119.531 20.1499 119.531H190.85C191.93 119.531 192.951 120.012 193.617 120.838C194.284 121.666 194.524 122.743 194.265 123.763C184.264 163.477 147.582 191.379 105.5 191.28V191.28ZM24.7572 126.364C35.5928 160.871 68.3667 184.447 105.5 184.447C142.633 184.447 175.407 160.871 186.243 126.364H24.7572Z" fill="black"/>
<path d="M190.85 85.363H20.1499C19.0697 85.3645 18.0491 84.8812 17.3827 84.0554C16.7162 83.2281 16.4764 82.1505 16.7355 81.1307C26.8258 41.4733 63.452 13.6133 105.5 13.6133C147.548 13.6133 184.174 41.4733 194.265 81.1307C194.524 82.1505 194.284 83.2281 193.617 84.0554C192.951 84.8812 191.93 85.3645 190.85 85.363ZM24.7572 78.5297H186.243C175.407 44.0226 142.633 20.4481 105.5 20.4481C68.3667 20.4481 35.5928 44.0226 24.7572 78.5297V78.5297Z" fill="black"/>
<path d="M105.5 163.947C79.1974 163.825 55.6718 148.024 46.2625 124.162C45.852 123.112 45.9985 121.933 46.6553 121.007C47.3105 120.083 48.3939 119.531 49.5497 119.531H161.45C162.606 119.531 163.688 120.083 164.345 121.007C165.002 121.933 165.148 123.112 164.736 124.162C155.328 148.026 131.803 163.825 105.5 163.947ZM54.9071 126.364C64.3261 145.174 83.9689 157.114 105.5 157.114C127.031 157.114 146.674 145.174 156.093 126.364H54.9071Z" fill="black"/>
<path d="M161.45 85.363H49.5497C48.3939 85.363 47.3121 84.8109 46.6553 83.8865C45.9985 82.9622 45.852 81.7829 46.2641 80.7319C55.5704 56.7913 79.1604 40.9478 105.5 40.9478C131.841 40.9478 155.431 56.7913 164.738 80.7319C165.15 81.7829 165.003 82.9622 164.346 83.8865C163.69 84.8124 162.606 85.3645 161.45 85.363V85.363ZM54.9071 78.5297H156.093C146.674 59.7192 127.031 47.7794 105.5 47.7794C83.9689 47.7794 64.3261 59.7192 54.9071 78.5297Z" fill="black"/>
<path d="M203.967 126.364H7.03323C3.15038 126.359 0.0032196 123.303 0 119.531V85.363C0.0032196 81.5905 3.15038 78.5344 7.03323 78.5297H203.967C207.85 78.5344 210.997 81.5905 211 85.363V119.531C210.997 123.303 207.85 126.359 203.967 126.364V126.364ZM203.967 85.3583L7.03323 85.363V119.531H203.967V85.3583Z" fill="black"/>
<path d="M52.75 116.113H45.7168C41.8339 116.11 38.6868 113.052 38.6835 109.28V92.1962C38.6835 90.31 40.2579 88.7804 42.1993 88.7804C44.1424 88.7804 45.7168 90.31 45.7168 92.1962V109.28H52.75C54.6914 109.28 56.2674 110.81 56.2674 112.697C56.2674 114.584 54.6914 116.113 52.75 116.113Z" fill="#F5F5F5"/>
<path d="M66.8164 116.113C60.9922 116.107 56.2738 111.521 56.2674 105.864V99.031C56.2674 93.3692 60.9906 88.7804 66.8164 88.7804C72.6439 88.7804 77.3671 93.3692 77.3671 99.031V105.864C77.3606 111.521 72.6407 116.107 66.8164 116.113ZM66.8164 95.6136C64.875 95.6167 63.3022 97.1448 63.3006 99.031V105.864C63.3006 107.75 64.875 109.28 66.8164 109.28C68.7595 109.28 70.3338 107.75 70.3338 105.864V99.031C70.3306 97.1448 68.7579 95.6167 66.8164 95.6136Z" fill="#F5F5F5"/>
<path d="M140.666 116.113C134.843 116.107 130.124 111.521 130.117 105.864V99.031C130.117 93.3692 134.84 88.7804 140.666 88.7804C146.494 88.7804 151.217 93.3692 151.217 99.031V105.864C151.21 111.521 146.49 116.107 140.666 116.113V116.113ZM140.666 95.6136C138.725 95.6167 137.152 97.1448 137.15 99.031V105.864C137.15 107.75 138.725 109.28 140.666 109.28C142.609 109.28 144.184 107.75 144.184 105.864V99.031C144.18 97.1448 142.608 95.6167 140.666 95.6136Z" fill="#F5F5F5"/>
<path d="M112.533 116.113H109.017C107.074 116.113 105.5 114.584 105.5 112.697V92.1962C105.5 90.31 107.074 88.7804 109.017 88.7804H112.533C120.302 88.7804 126.6 94.8988 126.6 102.447C126.6 109.995 120.302 116.113 112.533 116.113ZM112.533 95.6136V109.28C116.418 109.28 119.566 106.221 119.566 102.447C119.566 98.6728 116.418 95.6136 112.533 95.6136V95.6136Z" fill="#F5F5F5"/>
<path d="M98.4667 116.113C97.2916 116.113 96.1937 115.542 95.5401 114.591L87.9161 103.481V112.697C87.9161 114.584 86.3417 116.113 84.4003 116.113C82.4573 116.113 80.8829 114.584 80.8829 112.697V92.1962C80.8829 90.6916 81.897 89.3637 83.3813 88.9274C84.8639 88.491 86.4657 89.0494 87.3253 90.3022L94.9493 101.413V92.1962C94.9493 90.31 96.5237 88.7804 98.4667 88.7804C100.408 88.7804 101.983 90.31 101.983 92.1962V112.697C101.983 114.202 100.97 115.53 99.4857 115.966C99.1557 116.065 98.8129 116.115 98.4667 116.113Z" fill="#F5F5F5"/>
<path d="M172.316 116.113C171.141 116.113 170.043 115.542 169.391 114.591L161.767 103.481V112.697C161.767 114.584 160.191 116.113 158.25 116.113C156.309 116.113 154.733 114.584 154.733 112.697V92.1962C154.734 90.6916 155.748 89.3637 157.231 88.9274C158.714 88.491 160.317 89.0494 161.177 90.3022L168.801 101.413V92.1962C168.801 90.31 170.375 88.7804 172.316 88.7804C174.259 88.7804 175.834 90.31 175.834 92.1962V112.697C175.834 114.202 174.82 115.53 173.337 115.966C173.005 116.065 172.663 116.115 172.316 116.113V116.113Z" fill="#F5F5F5"/>
<path d="M137.292 170.576C135.648 170.576 134.225 169.468 133.863 167.912C133.501 166.354 134.296 164.761 135.78 164.074C150.301 157.343 162.002 145.972 168.931 131.865C169.784 130.193 171.858 129.495 173.591 130.297C175.325 131.098 176.077 133.103 175.28 134.8C167.659 150.325 154.782 162.837 138.804 170.243C138.33 170.462 137.815 170.576 137.292 170.576V170.576Z" fill="black"/>
<path d="M38.8944 74.9763C37.6871 74.9763 36.565 74.3757 35.9211 73.3841C35.2772 72.3925 35.2015 71.1491 35.7215 70.0918C43.3423 54.5673 56.2191 42.0566 72.1964 34.651C73.3345 34.102 74.6884 34.1927 75.738 34.8872C76.7875 35.5816 77.3719 36.7718 77.2641 38.0011C77.1562 39.2305 76.3738 40.3081 75.2196 40.8195C60.6992 47.5511 48.9959 58.9215 42.069 73.0291C41.4862 74.2193 40.2515 74.9778 38.8944 74.9763Z" fill="black"/>
<path d="M82.1689 72.2412C82.1143 72.1865 82.0664 72.125 82.0254 72.0566C81.9844 71.9746 81.9502 71.8721 81.9229 71.749C81.7314 71.5166 81.5811 71.25 81.4717 70.9492C81.3623 70.6484 81.2871 70.3408 81.2461 70.0264C81.2051 69.6982 81.1982 69.3701 81.2256 69.042C81.2529 68.7139 81.3008 68.4062 81.3691 68.1191C81.4102 67.9824 81.4443 67.8389 81.4717 67.6885C81.54 67.4287 81.6084 67.1758 81.6768 66.9297C81.7451 66.6699 81.8477 66.458 81.9844 66.2939C81.9297 66.1436 81.9365 65.9795 82.0049 65.8018C82.0732 65.624 82.1416 65.46 82.21 65.3096C82.2373 65.2686 82.2578 65.2344 82.2715 65.207C82.2852 65.166 82.2988 65.1318 82.3125 65.1045C82.4766 64.626 82.6338 64.168 82.7842 63.7305C82.9482 63.2793 83.1055 62.8486 83.2559 62.4385C83.5293 61.6865 83.7891 60.9482 84.0352 60.2236C84.2949 59.499 84.5273 58.7266 84.7324 57.9062C84.8418 57.8242 84.9375 57.7695 85.0195 57.7422C85.0469 57.7285 85.0811 57.7148 85.1221 57.7012C85.1631 57.6875 85.2109 57.6807 85.2656 57.6807C85.5527 57.8311 85.8877 57.9746 86.2705 58.1113C86.667 58.2344 87.002 58.2959 87.2754 58.2959L87.624 58.6035C87.8018 58.8086 87.9521 59.0273 88.0752 59.2598C88.2119 59.4785 88.2529 59.7656 88.1982 60.1211C88.1162 60.2441 88.0479 60.3193 87.9932 60.3467C87.9111 60.6611 87.8223 60.9414 87.7266 61.1875C87.6309 61.4199 87.5352 61.6455 87.4395 61.8643C87.3301 62.1104 87.2275 62.3564 87.1318 62.6025C87.0361 62.8486 86.9541 63.1494 86.8857 63.5049C86.8037 63.6006 86.749 63.6826 86.7217 63.751C86.708 63.8193 86.6875 63.8877 86.6602 63.9561C86.6328 64.0381 86.5986 64.127 86.5576 64.2227C86.5166 64.3047 86.4551 64.3799 86.373 64.4482C86.3184 64.8721 86.2363 65.2207 86.127 65.4941C86.0176 65.7539 85.9082 66.0137 85.7988 66.2734C85.6074 66.752 85.4297 67.2305 85.2656 67.709C85.1016 68.1738 85.0059 68.707 84.9785 69.3086C85.1426 69.2676 85.293 69.2471 85.4297 69.2471C85.6074 69.2471 85.7783 69.2744 85.9424 69.3291C86.4346 69.083 86.9678 68.9326 87.542 68.8779C88.1299 68.8232 88.7109 68.7891 89.2852 68.7754C89.7637 68.7754 90.208 68.7549 90.6182 68.7139C90.7549 68.8096 90.8438 68.8643 90.8848 68.8779C90.9258 68.8779 90.9941 68.8779 91.0898 68.8779C91.1309 68.8779 91.1719 68.8779 91.2129 68.8779C91.2539 68.8779 91.3086 68.8848 91.377 68.8984C91.5684 69.0898 91.7529 69.2266 91.9307 69.3086C92.1084 69.377 92.2998 69.4453 92.5049 69.5137C92.6826 69.582 92.8535 69.6572 93.0176 69.7393C93.1953 69.8076 93.3662 69.9033 93.5303 70.0264L93.7148 71.0723C93.8242 71.2227 93.8721 71.3252 93.8584 71.3799C93.8584 71.4893 93.8311 71.585 93.7764 71.667L93.8174 71.9336C93.5576 71.9883 93.3867 72.0498 93.3047 72.1182C93.2227 72.1729 93.1338 72.248 93.0381 72.3438C92.8877 72.3574 92.7441 72.3643 92.6074 72.3643C92.334 72.3643 92.0537 72.4053 91.7666 72.4873C91.3564 72.3369 90.9053 72.2617 90.4131 72.2617C90.2217 72.2617 90.0234 72.2686 89.8184 72.2822C89.627 72.2959 89.4355 72.3164 89.2441 72.3438C89.0391 72.3711 88.834 72.3984 88.6289 72.4258C88.4238 72.4395 88.2188 72.4463 88.0137 72.4463C87.8496 72.4736 87.7334 72.4941 87.665 72.5078C87.5967 72.5215 87.5283 72.542 87.46 72.5693C86.9951 72.7197 86.4893 72.8701 85.9424 73.0205C85.4092 73.1709 84.8691 73.2461 84.3223 73.2461C83.5156 73.2461 82.8662 73.041 82.374 72.6309C82.3193 72.5078 82.2783 72.4258 82.251 72.3848C82.2236 72.3438 82.1963 72.2959 82.1689 72.2412ZM106.245 66.8477C106.231 67.0117 106.245 67.1689 106.286 67.3193C106.327 67.4697 106.375 67.6201 106.43 67.7705C106.498 67.9072 106.56 68.0508 106.614 68.2012C106.669 68.3516 106.71 68.502 106.737 68.6523C106.765 68.8438 106.765 69.0557 106.737 69.2881C106.71 69.5068 106.662 69.7256 106.594 69.9443C106.525 70.1494 106.437 70.3408 106.327 70.5186C106.218 70.6826 106.088 70.8057 105.938 70.8877C105.746 71.1338 105.514 71.3252 105.24 71.4619C104.967 71.5986 104.714 71.7627 104.481 71.9541C104.331 72.0498 104.16 72.1182 103.969 72.1592C103.791 72.2002 103.606 72.2412 103.415 72.2822C103.265 72.3643 103.087 72.4531 102.882 72.5488C102.677 72.6309 102.465 72.7129 102.246 72.7949C102.027 72.8633 101.809 72.918 101.59 72.959C101.371 72.9863 101.18 72.9932 101.016 72.9795C100.605 73.1299 100.202 73.2256 99.8057 73.2666C99.4229 73.3213 98.9717 73.2939 98.4521 73.1846C97.96 73.2529 97.502 73.2324 97.0781 73.123C96.668 73.0137 96.2988 72.8428 95.9707 72.6104C95.6562 72.3643 95.376 72.0771 95.1299 71.749C94.8975 71.4072 94.7061 71.0518 94.5557 70.6826C94.4463 69.9033 94.4736 69.1992 94.6377 68.5703C94.8018 67.9277 95.0342 67.3398 95.335 66.8066C95.6494 66.2598 96.0049 65.7607 96.4014 65.3096C96.7979 64.8447 97.1807 64.3936 97.5498 63.9561C97.6318 63.9834 97.6934 63.9834 97.7344 63.9561C97.7891 63.915 97.8369 63.8672 97.8779 63.8125C97.9189 63.7441 97.96 63.6826 98.001 63.6279C98.0557 63.5732 98.1172 63.5391 98.1855 63.5254C98.2812 63.3203 98.418 63.1699 98.5957 63.0742C98.7871 62.9648 98.9375 62.8145 99.0469 62.623C99.1699 62.5957 99.2725 62.5547 99.3545 62.5C99.4365 62.4453 99.5117 62.3838 99.5801 62.3154C99.6621 62.2471 99.7441 62.1855 99.8262 62.1309C99.9082 62.0625 100.004 62.0146 100.113 61.9873V61.7617C100.359 61.6523 100.537 61.5293 100.646 61.3926C100.77 61.2422 100.913 61.0645 101.077 60.8594C101.2 60.8457 101.296 60.8389 101.364 60.8389C101.446 60.8389 101.562 60.8252 101.713 60.7979C101.822 60.6064 101.918 60.4629 102 60.3672C102.096 60.2715 102.232 60.1689 102.41 60.0596C102.574 60.1416 102.752 60.1963 102.943 60.2236C103.148 60.251 103.326 60.3398 103.477 60.4902C103.49 60.627 103.531 60.7363 103.6 60.8184C103.668 60.8867 103.743 60.9551 103.825 61.0234C103.907 61.0781 103.982 61.1396 104.051 61.208C104.133 61.2764 104.188 61.3721 104.215 61.4951C104.27 61.5088 104.304 61.502 104.317 61.4746C104.345 61.4473 104.386 61.4404 104.44 61.4541C104.481 61.6455 104.529 61.7754 104.584 61.8438C104.639 61.8984 104.693 62.0146 104.748 62.1924C104.68 62.3291 104.625 62.4727 104.584 62.623C104.557 62.7598 104.475 62.8623 104.338 62.9307C104.324 63.0264 104.352 63.0811 104.42 63.0947C104.488 63.0947 104.529 63.1289 104.543 63.1973C104.557 63.3203 104.536 63.4092 104.481 63.4639C104.81 63.9971 105.104 64.5645 105.363 65.166C105.623 65.7539 105.917 66.3145 106.245 66.8477ZM103.682 68.7959C103.736 68.6455 103.805 68.5225 103.887 68.4268C103.982 68.3311 104.037 68.1875 104.051 67.9961C103.982 67.8867 103.941 67.8047 103.928 67.75C103.914 67.6816 103.907 67.5791 103.907 67.4424C103.606 67.0186 103.347 66.5674 103.128 66.0889C102.909 65.5967 102.663 65.1387 102.39 64.7148C102.362 64.7695 102.314 64.8242 102.246 64.8789C102.178 64.9336 102.103 64.9199 102.021 64.8379C101.993 64.9473 101.945 65.0293 101.877 65.084C101.809 65.125 101.733 65.1455 101.651 65.1455C101.569 65.1318 101.48 65.1113 101.385 65.084C101.303 65.043 101.228 64.9951 101.159 64.9404C100.763 65.2549 100.366 65.5625 99.9697 65.8633C99.5732 66.1641 99.2178 66.5127 98.9033 66.9092C98.8486 66.9365 98.8145 66.9502 98.8008 66.9502C98.7871 66.9365 98.7461 66.9434 98.6777 66.9707C98.5684 67.2305 98.4316 67.4697 98.2676 67.6885C98.1172 67.8936 97.9668 68.1055 97.8164 68.3242C97.666 68.543 97.5361 68.7754 97.4268 69.0215C97.3174 69.2676 97.2559 69.5547 97.2422 69.8828C97.4746 70.0742 97.748 70.1904 98.0625 70.2314C98.377 70.2725 98.6982 70.2793 99.0264 70.252C99.3682 70.2246 99.6963 70.1836 100.011 70.1289C100.339 70.0605 100.64 70.0264 100.913 70.0264C101.487 69.8896 101.979 69.7119 102.39 69.4932C102.8 69.2607 103.23 69.0283 103.682 68.7959ZM107.414 63.7715C107.51 63.4844 107.66 63.2383 107.865 63.0332C108.084 62.8281 108.316 62.6572 108.562 62.5205C108.822 62.3701 109.089 62.2471 109.362 62.1514C109.636 62.0557 109.896 61.9736 110.142 61.9053C110.688 61.6729 111.27 61.4541 111.885 61.249C112.514 61.0303 113.149 60.8389 113.792 60.6748C114.448 60.5107 115.118 60.4082 115.802 60.3672C116.485 60.3125 117.203 60.3945 117.955 60.6133C117.996 60.75 118.058 60.8799 118.14 61.0029C118.222 61.126 118.304 61.249 118.386 61.3721C118.481 61.4951 118.563 61.6182 118.632 61.7412C118.7 61.8506 118.741 61.9668 118.755 62.0898C118.892 62.2129 119.001 62.3496 119.083 62.5C119.165 62.6367 119.179 62.8213 119.124 63.0537C118.987 63.1631 118.851 63.2656 118.714 63.3613C118.591 63.4434 118.454 63.5186 118.304 63.5869C117.798 63.4639 117.285 63.4229 116.766 63.4639C116.246 63.5049 115.781 63.5391 115.371 63.5664C115.248 63.4434 115.098 63.3818 114.92 63.3818C114.756 63.3818 114.578 63.4092 114.387 63.4639C114.209 63.5186 114.024 63.5732 113.833 63.6279C113.655 63.6826 113.484 63.6963 113.32 63.6689C113.184 63.7783 113.013 63.8535 112.808 63.8945C112.616 63.9219 112.404 63.9492 112.172 63.9766C112.158 64.0449 112.172 64.0928 112.213 64.1201C112.254 64.1338 112.261 64.1748 112.233 64.2432C112.315 64.3389 112.418 64.4072 112.541 64.4482C112.678 64.4893 112.814 64.5303 112.951 64.5713C113.102 64.6123 113.231 64.667 113.341 64.7354C113.45 64.79 113.525 64.8857 113.566 65.0225C113.771 65.0225 113.949 65.0703 114.1 65.166C114.25 65.2617 114.373 65.3779 114.469 65.5146C114.564 65.6514 114.633 65.8018 114.674 65.9658C114.729 66.1162 114.756 66.2529 114.756 66.376C114.797 66.4854 114.845 66.5332 114.899 66.5195C114.954 66.5059 115.016 66.5332 115.084 66.6016C115.125 66.7793 115.228 66.9639 115.392 67.1553C115.556 67.333 115.686 67.5312 115.781 67.75C115.809 68.0918 115.829 68.3994 115.843 68.6729C115.856 68.9326 115.809 69.1992 115.699 69.4727C115.494 69.9785 115.207 70.4297 114.838 70.8262C114.482 71.2227 114.072 71.5781 113.607 71.8926C113.156 72.1934 112.671 72.4531 112.151 72.6719C111.632 72.8906 111.126 73.0752 110.634 73.2256C110.579 73.2119 110.524 73.2119 110.47 73.2256C110.415 73.2393 110.401 73.2051 110.429 73.123C110.319 73.2188 110.196 73.2803 110.06 73.3076C109.937 73.335 109.8 73.3418 109.649 73.3281C109.499 73.3281 109.342 73.3213 109.178 73.3076C109.027 73.2939 108.884 73.3008 108.747 73.3281C108.651 73.2324 108.562 73.1367 108.48 73.041C108.412 72.959 108.357 72.8496 108.316 72.7129C108.248 72.7129 108.214 72.6787 108.214 72.6104C108.228 72.542 108.207 72.5078 108.152 72.5078C108.234 72.3711 108.269 72.2959 108.255 72.2822C108.255 72.2549 108.234 72.2344 108.193 72.2207C108.166 72.207 108.139 72.1934 108.111 72.1797C108.084 72.1523 108.077 72.1182 108.091 72.0771C108.146 71.9678 108.166 71.8447 108.152 71.708C108.139 71.5576 108.125 71.4072 108.111 71.2568C108.098 71.1064 108.104 70.9629 108.132 70.8262C108.173 70.6895 108.275 70.5801 108.439 70.498C108.904 70.5527 109.342 70.5391 109.752 70.457C110.176 70.3613 110.572 70.2314 110.941 70.0674C111.311 69.9033 111.659 69.7256 111.987 69.5342C112.329 69.3428 112.664 69.1719 112.992 69.0215C113.033 68.8984 113.088 68.7959 113.156 68.7139C113.238 68.6318 113.32 68.5566 113.402 68.4883C113.484 68.4199 113.56 68.3447 113.628 68.2627C113.696 68.1807 113.744 68.0781 113.771 67.9551C113.785 67.8594 113.758 67.8047 113.689 67.791C113.635 67.7637 113.607 67.709 113.607 67.627L113.382 67.5654C113.122 67.415 112.828 67.292 112.5 67.1963C112.172 67.0869 111.892 66.9707 111.659 66.8477C111.509 66.9297 111.365 66.9502 111.229 66.9092C111.105 66.8682 110.941 66.8271 110.736 66.7861C110.271 66.7588 109.82 66.7109 109.383 66.6426C108.959 66.5742 108.549 66.4512 108.152 66.2734C108.125 66.2051 108.091 66.1436 108.05 66.0889C108.009 66.0342 107.934 66.0205 107.824 66.0479C107.742 65.9385 107.66 65.8359 107.578 65.7402C107.496 65.6309 107.421 65.5146 107.353 65.3916C107.38 65.2275 107.4 65.0908 107.414 64.9814C107.428 64.8584 107.387 64.7422 107.291 64.6328C107.346 64.4551 107.387 64.3115 107.414 64.2021C107.441 64.0928 107.441 63.9492 107.414 63.7715ZM117.278 61.4336C117.265 61.3242 117.237 61.2285 117.196 61.1465C117.169 61.0508 117.135 60.9482 117.094 60.8389C117.025 60.6748 116.964 60.4971 116.909 60.3057C116.854 60.1143 116.827 59.8887 116.827 59.6289C116.854 59.4922 116.889 59.3965 116.93 59.3418C116.971 59.2734 117.012 59.2188 117.053 59.1777L117.135 58.8086H117.442C117.552 58.8223 117.661 58.8291 117.771 58.8291C117.894 58.8291 118.01 58.8291 118.119 58.8291C118.639 58.8291 119.172 58.8086 119.719 58.7676C120.266 58.7266 120.826 58.6787 121.4 58.624C122.029 58.542 122.706 58.4805 123.431 58.4395C123.499 58.2891 123.54 58.1934 123.554 58.1523C123.581 58.1113 123.608 58.0635 123.636 58.0088L123.861 57.8857C124.176 57.8721 124.395 57.9131 124.518 58.0088C124.641 58.0908 124.736 58.1729 124.805 58.2549C125.16 58.2275 125.522 58.1934 125.892 58.1523C126.261 58.0977 126.644 58.043 127.04 57.9883C127.587 57.9199 128.141 57.8516 128.701 57.7832C129.262 57.7148 129.809 57.6807 130.342 57.6807C130.574 57.6807 130.793 57.6875 130.998 57.7012C131.203 57.7148 131.401 57.7354 131.593 57.7627L131.839 57.9473C131.894 58.043 131.962 58.1318 132.044 58.2139C132.126 58.2959 132.222 58.3779 132.331 58.46C132.536 58.624 132.734 58.8291 132.926 59.0752C133.131 59.3213 133.206 59.6836 133.151 60.1621L133.049 60.3672C132.994 60.4219 132.926 60.4766 132.844 60.5312L132.639 60.7979H132.413C132.276 60.7979 132.174 60.8115 132.105 60.8389C132.037 60.8525 131.955 60.8799 131.859 60.9209C131.805 60.9482 131.743 60.9756 131.675 61.0029C131.606 61.0166 131.531 61.0371 131.449 61.0645C131.299 61.0508 131.183 61.0439 131.101 61.0439C131.019 61.0439 130.923 61.0439 130.813 61.0439C130.403 61.0439 129.959 61.0713 129.48 61.126C129.002 61.1807 128.537 61.2422 128.086 61.3105C127.758 61.3516 127.443 61.3926 127.143 61.4336C126.842 61.4609 126.568 61.4883 126.322 61.5156C126.186 61.8711 126.062 62.1855 125.953 62.459C125.844 62.7324 125.728 63.0059 125.604 63.2793C125.481 63.5527 125.365 63.833 125.256 64.1201C125.146 64.3936 125.044 64.7012 124.948 65.043C124.784 65.2891 124.647 65.5283 124.538 65.7607C124.429 65.9795 124.34 66.2324 124.271 66.5195C124.066 66.752 123.916 67.0049 123.82 67.2783C123.738 67.5518 123.663 67.7842 123.595 67.9756L123.513 68.2832C123.417 68.3789 123.355 68.4541 123.328 68.5088C123.314 68.5635 123.28 68.625 123.226 68.6934C123.185 68.8711 123.13 69.042 123.062 69.2061C123.034 69.2744 123.007 69.3496 122.979 69.4316C122.952 69.5 122.945 69.5547 122.959 69.5957C122.932 69.7461 122.891 69.8623 122.836 69.9443C122.836 70.0264 122.829 70.1084 122.815 70.1904C122.802 70.2725 122.788 70.3545 122.774 70.4365C122.747 70.5322 122.727 70.6211 122.713 70.7031C122.699 70.7715 122.706 70.8398 122.733 70.9082C122.774 70.9629 122.815 71.0176 122.856 71.0723C122.897 71.127 122.932 71.1953 122.959 71.2773C122.986 71.3047 123.021 71.3252 123.062 71.3389C123.103 71.3525 123.137 71.373 123.164 71.4004C123.273 71.4961 123.376 71.5508 123.472 71.5645L123.677 71.8105C123.759 72.3027 123.684 72.6855 123.451 72.959C123.205 73.2734 122.795 73.4307 122.221 73.4307L121.934 73.4102C121.838 73.3145 121.783 73.2529 121.77 73.2256C121.646 73.1709 121.544 73.123 121.462 73.082C121.38 73.0547 121.305 72.9932 121.236 72.8975C121.209 72.8701 121.175 72.8564 121.134 72.8564C121.093 72.8428 121.059 72.8223 121.031 72.7949C120.895 72.7539 120.785 72.7061 120.703 72.6514L120.478 72.5283C120.491 72.3916 120.498 72.2959 120.498 72.2412C120.389 72.0908 120.3 71.9268 120.231 71.749C120.177 71.5713 120.129 71.3867 120.088 71.1953C120.047 71.0449 120.006 70.9082 119.965 70.7852C119.938 70.6621 119.89 70.5527 119.821 70.457C119.794 69.5 119.883 68.7002 120.088 68.0576C120.293 67.4014 120.519 66.7656 120.765 66.1504C120.901 65.8223 121.031 65.4873 121.154 65.1455C121.277 64.8037 121.387 64.4551 121.482 64.0996L121.708 63.874C121.804 63.792 121.865 63.7441 121.893 63.7305C121.893 63.5527 121.927 63.3818 121.995 63.2178C122.063 63.04 122.139 62.8623 122.221 62.6846C122.275 62.5752 122.323 62.4658 122.364 62.3564C122.419 62.2471 122.453 62.1514 122.467 62.0693C122.371 62.0693 122.282 62.0762 122.2 62.0898C122.132 62.0898 122.057 62.0967 121.975 62.1104C121.797 62.1514 121.626 62.1719 121.462 62.1719C121.339 62.1719 121.25 62.165 121.195 62.1514C121.086 62.2061 120.983 62.2402 120.888 62.2539C120.792 62.2539 120.696 62.2539 120.601 62.2539H120.354H120.108C119.944 62.2539 119.814 62.2744 119.719 62.3154C119.527 62.3154 119.404 62.3154 119.35 62.3154C119.295 62.3154 119.233 62.3154 119.165 62.3154H118.919H118.673C118.563 62.3154 118.44 62.3086 118.304 62.2949C118.167 62.2676 118.023 62.2129 117.873 62.1309L117.729 61.9668C117.647 61.8164 117.572 61.7344 117.504 61.7207L117.278 61.6592V61.4336Z" fill="black"/>
<path d="M98.3477 148.564C98.416 148.975 98.3887 149.296 98.2656 149.528C98.1562 149.761 97.9922 149.932 97.7734 150.041C97.5684 150.164 97.3291 150.232 97.0557 150.246C96.7822 150.26 96.5225 150.246 96.2764 150.205C96.1396 150.014 96.0166 149.774 95.9072 149.487C95.7979 149.2 95.6953 148.906 95.5996 148.605C95.5039 148.291 95.415 147.983 95.333 147.683C95.2646 147.382 95.2031 147.115 95.1484 146.883C95.2168 146.719 95.2578 146.534 95.2715 146.329C95.2988 146.11 95.3125 145.892 95.3125 145.673C95.3262 145.454 95.333 145.235 95.333 145.017C95.3467 144.784 95.3672 144.565 95.3945 144.36C95.4902 143.786 95.627 143.239 95.8047 142.72C95.9961 142.2 96.1465 141.66 96.2559 141.1C96.2832 140.977 96.2695 140.86 96.2148 140.751C96.1738 140.642 96.167 140.539 96.1943 140.443C96.208 140.389 96.249 140.354 96.3174 140.341C96.3857 140.313 96.4268 140.266 96.4404 140.197C96.4814 140.047 96.4883 139.924 96.4609 139.828C96.4473 139.732 96.4746 139.616 96.543 139.479C96.6113 139.37 96.6934 139.213 96.7891 139.008C96.8984 138.789 96.9395 138.563 96.9121 138.331C97.0352 138.249 97.1514 138.153 97.2607 138.044C97.3701 137.935 97.4795 137.839 97.5889 137.757C97.7119 137.661 97.8418 137.579 97.9785 137.511C98.1289 137.442 98.3066 137.408 98.5117 137.408C98.6211 137.545 98.6895 137.695 98.7168 137.859C98.7578 138.023 98.792 138.188 98.8193 138.352C98.8604 138.516 98.915 138.673 98.9834 138.823C99.0518 138.96 99.168 139.069 99.332 139.151C99.332 139.261 99.332 139.397 99.332 139.562C99.332 139.726 99.3389 139.89 99.3525 140.054C99.3662 140.204 99.3936 140.348 99.4346 140.484C99.4893 140.607 99.5713 140.689 99.6807 140.73C99.4346 141.387 99.2021 142.036 98.9834 142.679C98.7783 143.321 98.6074 143.971 98.4707 144.627C98.334 145.27 98.2451 145.919 98.2041 146.575C98.1768 147.231 98.2246 147.895 98.3477 148.564ZM104.438 148.072C104.302 148.182 104.22 148.325 104.192 148.503C104.165 148.667 104.131 148.831 104.09 148.995C104.049 149.159 103.974 149.303 103.864 149.426C103.769 149.535 103.591 149.583 103.331 149.569C103.276 149.638 103.263 149.679 103.29 149.692C103.331 149.706 103.365 149.768 103.393 149.877C103.201 149.85 103.064 149.863 102.982 149.918C102.9 149.973 102.798 150.014 102.675 150.041C102.36 149.945 102.094 149.774 101.875 149.528C101.67 149.269 101.485 148.988 101.321 148.688C101.171 148.387 101.034 148.079 100.911 147.765C100.802 147.45 100.686 147.177 100.562 146.944C100.562 146.89 100.59 146.869 100.645 146.883C100.686 146.883 100.727 146.883 100.768 146.883C100.699 146.746 100.651 146.596 100.624 146.432C100.583 146.254 100.515 146.11 100.419 146.001C100.815 145.153 101.239 144.271 101.69 143.355C102.142 142.426 102.593 141.489 103.044 140.546C103.509 139.589 103.967 138.632 104.418 137.675C104.883 136.704 105.327 135.754 105.751 134.824C106.134 134.961 106.503 135.125 106.858 135.316C107.228 135.494 107.562 135.706 107.863 135.952C108.164 136.198 108.417 136.485 108.622 136.813C108.841 137.128 108.984 137.49 109.053 137.9C109.025 137.982 108.991 138.01 108.95 137.982C108.909 137.955 108.875 137.969 108.848 138.023C108.916 138.105 108.95 138.167 108.95 138.208C108.964 138.235 108.964 138.27 108.95 138.311C108.937 138.338 108.93 138.379 108.93 138.434C108.93 138.488 108.964 138.563 109.032 138.659C108.964 138.646 108.916 138.659 108.889 138.7C108.861 138.728 108.813 138.728 108.745 138.7C108.813 138.892 108.834 139.042 108.807 139.151C108.779 139.261 108.738 139.363 108.684 139.459C108.629 139.541 108.581 139.637 108.54 139.746C108.513 139.842 108.526 139.979 108.581 140.156C108.526 140.156 108.485 140.17 108.458 140.197C108.444 140.211 108.431 140.231 108.417 140.259C108.403 140.286 108.383 140.313 108.355 140.341C108.342 140.354 108.308 140.354 108.253 140.341C108.294 140.696 108.308 141.059 108.294 141.428C108.28 141.783 108.267 142.152 108.253 142.535C108.239 142.904 108.239 143.287 108.253 143.684C108.267 144.08 108.321 144.49 108.417 144.914C109.005 144.572 109.477 144.128 109.832 143.581C110.201 143.034 110.488 142.426 110.693 141.756C110.912 141.086 111.076 140.368 111.186 139.603C111.309 138.837 111.432 138.058 111.555 137.265C111.705 137.114 111.821 136.93 111.903 136.711C111.999 136.492 112.074 136.267 112.129 136.034C112.197 135.802 112.259 135.569 112.313 135.337C112.382 135.091 112.471 134.872 112.58 134.681C112.826 134.708 113.031 134.783 113.195 134.906C113.373 135.016 113.537 135.146 113.688 135.296C113.838 135.433 113.995 135.562 114.159 135.686C114.323 135.809 114.528 135.891 114.774 135.932C114.966 136.205 115.144 136.472 115.308 136.731C115.472 136.978 115.581 137.258 115.636 137.572C115.554 137.709 115.492 137.859 115.451 138.023C115.41 138.188 115.362 138.352 115.308 138.516C115.267 138.68 115.205 138.83 115.123 138.967C115.041 139.104 114.925 139.22 114.774 139.315C114.733 139.726 114.672 140.108 114.59 140.464C114.508 140.819 114.433 141.168 114.364 141.51C114.296 141.852 114.234 142.207 114.18 142.576C114.125 142.945 114.104 143.349 114.118 143.786C113.995 144.183 113.858 144.593 113.708 145.017C113.558 145.427 113.448 145.81 113.38 146.165C113.12 146.37 112.915 146.623 112.765 146.924C112.614 147.225 112.457 147.525 112.293 147.826C112.225 147.881 112.184 147.895 112.17 147.867C112.156 147.826 112.095 147.799 111.985 147.785C111.999 147.908 111.972 147.99 111.903 148.031C111.849 148.059 111.855 148.154 111.924 148.318C111.691 148.428 111.486 148.571 111.309 148.749C111.131 148.927 110.933 149.091 110.714 149.241C110.509 149.392 110.263 149.494 109.976 149.549C109.702 149.59 109.34 149.528 108.889 149.364C108.219 148.872 107.617 148.305 107.084 147.662C106.551 147.02 106.127 146.261 105.812 145.386C105.676 145.427 105.573 145.516 105.505 145.652C105.437 145.789 105.375 145.933 105.32 146.083C105.266 146.233 105.211 146.37 105.156 146.493C105.102 146.616 105.02 146.678 104.91 146.678C104.883 146.801 104.828 146.917 104.746 147.026C104.678 147.122 104.609 147.225 104.541 147.334C104.473 147.43 104.418 147.539 104.377 147.662C104.35 147.785 104.37 147.922 104.438 148.072Z" fill="black"/>
</g>
<defs>
<clipPath id="clip0">
<rect width="211" height="205" fill="white"/>
</clipPath>
</defs>
</svg>
